<svg width="400" height="400" viewBox="0 0 400 400" fill="none" xmlns="http://www.w3.org/2000/svg">
<circle cx="200" cy="200" r="125" stroke="#EF4444" stroke-width="20"/>
<g filter="url(#filter0_d_1_2)">
<rect x="145.891" y="148.624" width="22.0416" height="127.459" rx="5" transform="rotate(4 145.891 148.624)" fill="#EF4444"/>
</g>
<rect x="232.964" y="149.027" width="22" height="128.792" rx="5" transform="rotate(-4 232.964 149.027)" fill="#EF4444"/>
<rect x="126" y="187" width="148" height="19" rx="3" fill="#EF4444"/>
<path d="M130.993 151.731C130.993 149.984 130.081 148.363 128.587 147.457L119.875 142.169C115.647 139.603 118.139 133.089 123 134V134L136.5 136L141 136.5L147.5 137.5L212 138.5L272.671 137.236C277.016 137.146 279.4 142.257 276.538 145.527L270.919 151.95C270.318 152.637 269.916 153.475 269.758 154.374L267.729 165.869C267.307 168.258 265.231 170 262.805 170H135.993C133.231 170 130.993 167.761 130.993 165V151.731Z" fill="#EF4444"/>
<rect x="190" y="166" width="20" height="25" fill="#EF4444"/>
<path d="M146 154C146 157.314 140.18 160 133 160C125.82 160 119.5 156.314 119.5 153C119.5 149.686 125.82 148 133 148C140.18 148 146 150.686 146 154Z" fill="#EF4444"/>
<path d="M280 154.5C280 157.814 272.837 160.5 264 160.5C255.163 160.5 248 157.314 248 154C248 150.686 255.163 148 264 148C272.837 148 280 151.186 280 154.5Z" fill="#EF4444"/>
<path d="M131 144C131 148.971 127.866 153 124 153C120.134 153 117 147.471 117 142.5C117 137.529 120.134 135 124 135C127.866 135 131 139.029 131 144Z" fill="#EF4444"/>
<path d="M271 148C271 152.971 273.686 157 277 157C280.314 157 283 151.471 283 146.5C283 141.529 280.314 139 277 139C273.686 139 271 143.029 271 148Z" fill="#EF4444"/>
<path d="M117.634 146.597L120 146L122.051 153.654L119.685 154.251C118.713 151.781 118.242 150.174 117.634 146.597Z" fill="#EF4444"/>
<path d="M277 133H283L283.5 133.5L283 146H277L257 136L277 133Z" fill="#EF4444"/>
<path d="M123.5 133H117.5L116.5 133.5V138L117.5 146H123.5L143.5 136L123.5 133Z" fill="#EF4444"/>
<rect x="142.204" y="135.871" width="15" height="2" transform="rotate(6 142.204 135.871)" fill="#EF4444"/>
<path d="M263.765 135L250 136.72L244.5 137L224 138.5L242 138.5L248.485 140.532L264.25 137.752L263.765 135Z" fill="#EF4444"/>
<path d="M152.087 137L153.5 137L155.5 137L156.5 137L174 137.996L165.038 138.133L164.951 139.129L152 137.996L152.087 137Z" fill="#EF4444"/>
<defs>
<filter id="filter0_d_1_2" x="133.336" y="148.96" width="38.2062" height="136.013" filterUnits="userSpaceOnUse" color-interpolation-filters="sRGB">
<feFlood flood-opacity="0" result="BackgroundImageFix"/>
<feColorMatrix in="SourceAlpha" type="matrix" values="0 0 0 0 0 0 0 0 0 0 0 0 0 0 0 0 0 0 127 0" result="hardAlpha"/>
<feOffset dy="4"/>
<feGaussianBlur stdDeviation="2"/>
<feComposite in2="hardAlpha" operator="out"/>
<feColorMatrix type="matrix" values="0 0 0 0 0 0 0 0 0 0 0 0 0 0 0 0 0 0 0.25 0"/>
<feBlend mode="normal" in2="BackgroundImageFix" result="effect1_dropShadow_1_2"/>
<feBlend mode="normal" in="SourceGraphic" in2="effect1_dropShadow_1_2" result="shape"/>
</filter>
</defs>
</svg>
